<mxfile host="app.diagrams.net" agent="Mozilla/5.0 (Windows NT 10.0; Win64; x64) AppleWebKit/537.36 (KHTML, like Gecko) Chrome/130.0.0.0 Safari/537.36" version="24.8.6">
  <diagram name="Сторінка-1" id="jqscqfRSWLikAZPrTDPB">
    <mxGraphModel grid="1" page="1" gridSize="10" guides="1" tooltips="1" connect="1" arrows="1" fold="1" pageScale="1" pageWidth="827" pageHeight="1169" math="0" shadow="0">
      <root>
        <mxCell id="0" />
        <mxCell id="1" parent="0" />
        <mxCell id="0RD8nXB8vR-oB6VirIcd-3" value="" style="edgeStyle=orthogonalEdgeStyle;rounded=0;orthogonalLoop=1;jettySize=auto;html=1;" edge="1" parent="1" source="0RD8nXB8vR-oB6VirIcd-1" target="0RD8nXB8vR-oB6VirIcd-2">
          <mxGeometry relative="1" as="geometry" />
        </mxCell>
        <mxCell id="0RD8nXB8vR-oB6VirIcd-1" value="&lt;font style=&quot;font-size: 18px;&quot;&gt;Start&lt;/font&gt;" style="ellipse;whiteSpace=wrap;html=1;" vertex="1" parent="1">
          <mxGeometry x="280" y="20" width="120" height="80" as="geometry" />
        </mxCell>
        <mxCell id="0RD8nXB8vR-oB6VirIcd-9" value="" style="edgeStyle=orthogonalEdgeStyle;rounded=0;orthogonalLoop=1;jettySize=auto;html=1;" edge="1" parent="1" source="0RD8nXB8vR-oB6VirIcd-2" target="0RD8nXB8vR-oB6VirIcd-4">
          <mxGeometry relative="1" as="geometry" />
        </mxCell>
        <mxCell id="0RD8nXB8vR-oB6VirIcd-2" value="Ініціалізація масиву чисел&lt;br&gt;Ініціалізація size_num" style="rounded=0;whiteSpace=wrap;html=1;" vertex="1" parent="1">
          <mxGeometry x="265" y="150" width="150" height="60" as="geometry" />
        </mxCell>
        <mxCell id="0RD8nXB8vR-oB6VirIcd-11" value="" style="edgeStyle=orthogonalEdgeStyle;rounded=0;orthogonalLoop=1;jettySize=auto;html=1;" edge="1" parent="1" source="0RD8nXB8vR-oB6VirIcd-4" target="0RD8nXB8vR-oB6VirIcd-10">
          <mxGeometry relative="1" as="geometry" />
        </mxCell>
        <mxCell id="0RD8nXB8vR-oB6VirIcd-4" value="Print(num, size_num)" style="rounded=0;whiteSpace=wrap;html=1;" vertex="1" parent="1">
          <mxGeometry x="270" y="240" width="140" height="60" as="geometry" />
        </mxCell>
        <mxCell id="0RD8nXB8vR-oB6VirIcd-5" value="" style="endArrow=none;html=1;rounded=0;entryX=0.167;entryY=0;entryDx=0;entryDy=0;entryPerimeter=0;exitX=0.167;exitY=0.993;exitDx=0;exitDy=0;exitPerimeter=0;" edge="1" parent="1">
          <mxGeometry width="50" height="50" relative="1" as="geometry">
            <mxPoint x="280.03999999999996" y="299.99999999999994" as="sourcePoint" />
            <mxPoint x="280.03999999999996" y="240.42" as="targetPoint" />
            <Array as="points">
              <mxPoint x="280" y="270.41999999999996" />
            </Array>
          </mxGeometry>
        </mxCell>
        <mxCell id="0RD8nXB8vR-oB6VirIcd-6" value="" style="endArrow=none;html=1;rounded=0;entryX=0.167;entryY=0;entryDx=0;entryDy=0;entryPerimeter=0;exitX=0.167;exitY=0.993;exitDx=0;exitDy=0;exitPerimeter=0;" edge="1" parent="1">
          <mxGeometry width="50" height="50" relative="1" as="geometry">
            <mxPoint x="400" y="300" as="sourcePoint" />
            <mxPoint x="400" y="240" as="targetPoint" />
            <Array as="points">
              <mxPoint x="400" y="270" />
            </Array>
          </mxGeometry>
        </mxCell>
        <mxCell id="0RD8nXB8vR-oB6VirIcd-17" value="" style="edgeStyle=orthogonalEdgeStyle;rounded=0;orthogonalLoop=1;jettySize=auto;html=1;" edge="1" parent="1" source="0RD8nXB8vR-oB6VirIcd-10" target="0RD8nXB8vR-oB6VirIcd-13">
          <mxGeometry relative="1" as="geometry" />
        </mxCell>
        <mxCell id="0RD8nXB8vR-oB6VirIcd-10" value="Ініціалізація стрічки" style="rounded=0;whiteSpace=wrap;html=1;" vertex="1" parent="1">
          <mxGeometry x="280" y="340" width="120" height="60" as="geometry" />
        </mxCell>
        <mxCell id="0RD8nXB8vR-oB6VirIcd-19" value="" style="edgeStyle=orthogonalEdgeStyle;rounded=0;orthogonalLoop=1;jettySize=auto;html=1;" edge="1" parent="1" source="0RD8nXB8vR-oB6VirIcd-13" target="0RD8nXB8vR-oB6VirIcd-18">
          <mxGeometry relative="1" as="geometry" />
        </mxCell>
        <mxCell id="0RD8nXB8vR-oB6VirIcd-13" value="Print(words)" style="rounded=0;whiteSpace=wrap;html=1;" vertex="1" parent="1">
          <mxGeometry x="270" y="440" width="140" height="60" as="geometry" />
        </mxCell>
        <mxCell id="0RD8nXB8vR-oB6VirIcd-14" value="" style="endArrow=none;html=1;rounded=0;entryX=0.167;entryY=0;entryDx=0;entryDy=0;entryPerimeter=0;exitX=0.167;exitY=0.993;exitDx=0;exitDy=0;exitPerimeter=0;" edge="1" parent="1">
          <mxGeometry width="50" height="50" relative="1" as="geometry">
            <mxPoint x="280.03999999999996" y="499.99999999999994" as="sourcePoint" />
            <mxPoint x="280.03999999999996" y="440.41999999999996" as="targetPoint" />
            <Array as="points">
              <mxPoint x="280" y="470.41999999999996" />
            </Array>
          </mxGeometry>
        </mxCell>
        <mxCell id="0RD8nXB8vR-oB6VirIcd-15" value="" style="endArrow=none;html=1;rounded=0;entryX=0.167;entryY=0;entryDx=0;entryDy=0;entryPerimeter=0;exitX=0.167;exitY=0.993;exitDx=0;exitDy=0;exitPerimeter=0;" edge="1" parent="1">
          <mxGeometry width="50" height="50" relative="1" as="geometry">
            <mxPoint x="400" y="500" as="sourcePoint" />
            <mxPoint x="400" y="440" as="targetPoint" />
            <Array as="points">
              <mxPoint x="400" y="470" />
            </Array>
          </mxGeometry>
        </mxCell>
        <mxCell id="0RD8nXB8vR-oB6VirIcd-18" value="&lt;font style=&quot;font-size: 18px;&quot;&gt;End&lt;/font&gt;" style="ellipse;whiteSpace=wrap;html=1;" vertex="1" parent="1">
          <mxGeometry x="280" y="530" width="120" height="80" as="geometry" />
        </mxCell>
        <mxCell id="0RD8nXB8vR-oB6VirIcd-25" value="" style="edgeStyle=orthogonalEdgeStyle;rounded=0;orthogonalLoop=1;jettySize=auto;html=1;" edge="1" parent="1" source="0RD8nXB8vR-oB6VirIcd-23" target="0RD8nXB8vR-oB6VirIcd-24">
          <mxGeometry relative="1" as="geometry" />
        </mxCell>
        <mxCell id="0RD8nXB8vR-oB6VirIcd-23" value="Print(num, size_num)" style="ellipse;whiteSpace=wrap;html=1;" vertex="1" parent="1">
          <mxGeometry x="490" y="230" width="130" height="80" as="geometry" />
        </mxCell>
        <mxCell id="0RD8nXB8vR-oB6VirIcd-27" value="" style="edgeStyle=orthogonalEdgeStyle;rounded=0;orthogonalLoop=1;jettySize=auto;html=1;" edge="1" parent="1" source="0RD8nXB8vR-oB6VirIcd-24" target="0RD8nXB8vR-oB6VirIcd-26">
          <mxGeometry relative="1" as="geometry" />
        </mxCell>
        <mxCell id="0RD8nXB8vR-oB6VirIcd-24" value="Ініціалізація підрахунку від&#39;ємних чисел = 0" style="rounded=0;whiteSpace=wrap;html=1;" vertex="1" parent="1">
          <mxGeometry x="495" y="340" width="120" height="60" as="geometry" />
        </mxCell>
        <mxCell id="0RD8nXB8vR-oB6VirIcd-29" value="" style="edgeStyle=orthogonalEdgeStyle;rounded=0;orthogonalLoop=1;jettySize=auto;html=1;" edge="1" parent="1" source="0RD8nXB8vR-oB6VirIcd-26" target="0RD8nXB8vR-oB6VirIcd-28">
          <mxGeometry relative="1" as="geometry" />
        </mxCell>
        <mxCell id="0RD8nXB8vR-oB6VirIcd-42" value="" style="edgeStyle=orthogonalEdgeStyle;rounded=0;orthogonalLoop=1;jettySize=auto;html=1;" edge="1" parent="1" source="0RD8nXB8vR-oB6VirIcd-26" target="0RD8nXB8vR-oB6VirIcd-41">
          <mxGeometry relative="1" as="geometry" />
        </mxCell>
        <mxCell id="0RD8nXB8vR-oB6VirIcd-26" value="&lt;span style=&quot;font-size: 14px;&quot;&gt;int i = 0; i &amp;lt; size_num; i++&lt;/span&gt;" style="shape=hexagon;perimeter=hexagonPerimeter2;whiteSpace=wrap;html=1;fixedSize=1;" vertex="1" parent="1">
          <mxGeometry x="454.75" y="439.99999999999994" width="200.5" height="50.41" as="geometry" />
        </mxCell>
        <mxCell id="0RD8nXB8vR-oB6VirIcd-31" value="" style="edgeStyle=orthogonalEdgeStyle;rounded=0;orthogonalLoop=1;jettySize=auto;html=1;" edge="1" parent="1" source="0RD8nXB8vR-oB6VirIcd-28" target="0RD8nXB8vR-oB6VirIcd-30">
          <mxGeometry relative="1" as="geometry" />
        </mxCell>
        <mxCell id="0RD8nXB8vR-oB6VirIcd-28" value="num[ i ] &amp;lt; 0" style="rhombus;whiteSpace=wrap;html=1;" vertex="1" parent="1">
          <mxGeometry x="515" y="520" width="80" height="80" as="geometry" />
        </mxCell>
        <mxCell id="0RD8nXB8vR-oB6VirIcd-30" value="negativeCount++" style="rounded=0;whiteSpace=wrap;html=1;" vertex="1" parent="1">
          <mxGeometry x="655.25" y="530" width="120" height="60" as="geometry" />
        </mxCell>
        <mxCell id="0RD8nXB8vR-oB6VirIcd-32" value="&lt;font style=&quot;font-size: 14px;&quot;&gt;YES&lt;/font&gt;" style="text;strokeColor=none;align=center;fillColor=none;html=1;verticalAlign=middle;whiteSpace=wrap;rounded=0;" vertex="1" parent="1">
          <mxGeometry x="590" y="530" width="60" height="30" as="geometry" />
        </mxCell>
        <mxCell id="0RD8nXB8vR-oB6VirIcd-33" value="&lt;font style=&quot;font-size: 14px;&quot;&gt;YES&lt;/font&gt;" style="text;strokeColor=none;align=center;fillColor=none;html=1;verticalAlign=middle;whiteSpace=wrap;rounded=0;" vertex="1" parent="1">
          <mxGeometry x="495" y="490.40999999999997" width="60" height="30" as="geometry" />
        </mxCell>
        <mxCell id="0RD8nXB8vR-oB6VirIcd-34" value="" style="endArrow=none;html=1;rounded=0;" edge="1" parent="1" target="0RD8nXB8vR-oB6VirIcd-28">
          <mxGeometry width="50" height="50" relative="1" as="geometry">
            <mxPoint x="440" y="560" as="sourcePoint" />
            <mxPoint x="530" y="510" as="targetPoint" />
          </mxGeometry>
        </mxCell>
        <mxCell id="0RD8nXB8vR-oB6VirIcd-35" value="" style="endArrow=none;html=1;rounded=0;" edge="1" parent="1">
          <mxGeometry width="50" height="50" relative="1" as="geometry">
            <mxPoint x="440" y="560" as="sourcePoint" />
            <mxPoint x="440" y="460" as="targetPoint" />
          </mxGeometry>
        </mxCell>
        <mxCell id="0RD8nXB8vR-oB6VirIcd-37" value="" style="endArrow=classic;html=1;rounded=0;entryX=0.032;entryY=0.385;entryDx=0;entryDy=0;entryPerimeter=0;" edge="1" parent="1" target="0RD8nXB8vR-oB6VirIcd-26">
          <mxGeometry width="50" height="50" relative="1" as="geometry">
            <mxPoint x="440" y="460" as="sourcePoint" />
            <mxPoint x="530" y="510" as="targetPoint" />
          </mxGeometry>
        </mxCell>
        <mxCell id="0RD8nXB8vR-oB6VirIcd-38" value="&lt;font style=&quot;font-size: 14px;&quot;&gt;NO&lt;/font&gt;" style="text;strokeColor=none;align=center;fillColor=none;html=1;verticalAlign=middle;whiteSpace=wrap;rounded=0;" vertex="1" parent="1">
          <mxGeometry x="450" y="530" width="60" height="30" as="geometry" />
        </mxCell>
        <mxCell id="0RD8nXB8vR-oB6VirIcd-41" value="Вивід кількості негативних чисел" style="shape=parallelogram;perimeter=parallelogramPerimeter;whiteSpace=wrap;html=1;fixedSize=1;" vertex="1" parent="1">
          <mxGeometry x="690" y="435.21" width="137" height="60" as="geometry" />
        </mxCell>
        <mxCell id="0RD8nXB8vR-oB6VirIcd-51" value="" style="edgeStyle=orthogonalEdgeStyle;rounded=0;orthogonalLoop=1;jettySize=auto;html=1;" edge="1" parent="1" source="0RD8nXB8vR-oB6VirIcd-43" target="0RD8nXB8vR-oB6VirIcd-50">
          <mxGeometry relative="1" as="geometry" />
        </mxCell>
        <mxCell id="0RD8nXB8vR-oB6VirIcd-43" value="Print(words)" style="ellipse;whiteSpace=wrap;html=1;" vertex="1" parent="1">
          <mxGeometry x="120" y="425.21" width="120" height="80" as="geometry" />
        </mxCell>
        <mxCell id="0RD8nXB8vR-oB6VirIcd-44" value="&lt;font style=&quot;font-size: 14px;&quot;&gt;NO&lt;/font&gt;" style="text;strokeColor=none;align=center;fillColor=none;html=1;verticalAlign=middle;whiteSpace=wrap;rounded=0;" vertex="1" parent="1">
          <mxGeometry x="640" y="435.21" width="60" height="30" as="geometry" />
        </mxCell>
        <mxCell id="0RD8nXB8vR-oB6VirIcd-46" value="" style="endArrow=none;html=1;rounded=0;exitX=1;exitY=0.5;exitDx=0;exitDy=0;" edge="1" parent="1" source="0RD8nXB8vR-oB6VirIcd-30">
          <mxGeometry width="50" height="50" relative="1" as="geometry">
            <mxPoint x="775.25" y="555.21" as="sourcePoint" />
            <mxPoint x="850" y="560" as="targetPoint" />
          </mxGeometry>
        </mxCell>
        <mxCell id="0RD8nXB8vR-oB6VirIcd-48" value="" style="endArrow=classic;html=1;rounded=0;entryX=1;entryY=0.25;entryDx=0;entryDy=0;" edge="1" parent="1" target="0RD8nXB8vR-oB6VirIcd-33">
          <mxGeometry width="50" height="50" relative="1" as="geometry">
            <mxPoint x="850" y="500" as="sourcePoint" />
            <mxPoint x="730" y="520" as="targetPoint" />
          </mxGeometry>
        </mxCell>
        <mxCell id="0RD8nXB8vR-oB6VirIcd-49" value="" style="endArrow=none;html=1;rounded=0;" edge="1" parent="1">
          <mxGeometry width="50" height="50" relative="1" as="geometry">
            <mxPoint x="850" y="560" as="sourcePoint" />
            <mxPoint x="850" y="500" as="targetPoint" />
          </mxGeometry>
        </mxCell>
        <mxCell id="0RD8nXB8vR-oB6VirIcd-53" value="" style="edgeStyle=orthogonalEdgeStyle;rounded=0;orthogonalLoop=1;jettySize=auto;html=1;" edge="1" parent="1" source="0RD8nXB8vR-oB6VirIcd-50" target="0RD8nXB8vR-oB6VirIcd-52">
          <mxGeometry relative="1" as="geometry" />
        </mxCell>
        <mxCell id="0RD8nXB8vR-oB6VirIcd-50" value="Створення потоку stream з рядка str&amp;nbsp;" style="rounded=0;whiteSpace=wrap;html=1;" vertex="1" parent="1">
          <mxGeometry x="120" y="550" width="120" height="60" as="geometry" />
        </mxCell>
        <mxCell id="0RD8nXB8vR-oB6VirIcd-55" value="" style="edgeStyle=orthogonalEdgeStyle;rounded=0;orthogonalLoop=1;jettySize=auto;html=1;" edge="1" parent="1" source="0RD8nXB8vR-oB6VirIcd-52" target="0RD8nXB8vR-oB6VirIcd-54">
          <mxGeometry relative="1" as="geometry" />
        </mxCell>
        <mxCell id="0RD8nXB8vR-oB6VirIcd-52" value="Ініціалізація count = 0&amp;nbsp;" style="rounded=0;whiteSpace=wrap;html=1;" vertex="1" parent="1">
          <mxGeometry x="110" y="650" width="140" height="60" as="geometry" />
        </mxCell>
        <mxCell id="0RD8nXB8vR-oB6VirIcd-54" value="Чи є &lt;br&gt;слова в потоці ?" style="rhombus;whiteSpace=wrap;html=1;" vertex="1" parent="1">
          <mxGeometry x="110" y="750" width="140" height="80" as="geometry" />
        </mxCell>
        <mxCell id="0RD8nXB8vR-oB6VirIcd-61" value="" style="edgeStyle=orthogonalEdgeStyle;rounded=0;orthogonalLoop=1;jettySize=auto;html=1;" edge="1" parent="1" source="0RD8nXB8vR-oB6VirIcd-56" target="0RD8nXB8vR-oB6VirIcd-60">
          <mxGeometry relative="1" as="geometry" />
        </mxCell>
        <mxCell id="0RD8nXB8vR-oB6VirIcd-56" value="Зчитування слова з потоку" style="rounded=0;whiteSpace=wrap;html=1;" vertex="1" parent="1">
          <mxGeometry y="850" width="120" height="60" as="geometry" />
        </mxCell>
        <mxCell id="0RD8nXB8vR-oB6VirIcd-57" value="" style="endArrow=none;html=1;rounded=0;entryX=0;entryY=0.5;entryDx=0;entryDy=0;" edge="1" parent="1" target="0RD8nXB8vR-oB6VirIcd-54">
          <mxGeometry width="50" height="50" relative="1" as="geometry">
            <mxPoint x="60" y="790" as="sourcePoint" />
            <mxPoint x="650" y="690" as="targetPoint" />
          </mxGeometry>
        </mxCell>
        <mxCell id="0RD8nXB8vR-oB6VirIcd-58" value="" style="endArrow=classic;html=1;rounded=0;entryX=0.5;entryY=0;entryDx=0;entryDy=0;" edge="1" parent="1" target="0RD8nXB8vR-oB6VirIcd-56">
          <mxGeometry width="50" height="50" relative="1" as="geometry">
            <mxPoint x="60" y="790" as="sourcePoint" />
            <mxPoint x="350" y="740" as="targetPoint" />
          </mxGeometry>
        </mxCell>
        <mxCell id="0RD8nXB8vR-oB6VirIcd-59" value="&lt;font style=&quot;font-size: 14px;&quot;&gt;YES&lt;/font&gt;" style="text;strokeColor=none;align=center;fillColor=none;html=1;verticalAlign=middle;whiteSpace=wrap;rounded=0;" vertex="1" parent="1">
          <mxGeometry x="60" y="760" width="60" height="30" as="geometry" />
        </mxCell>
        <mxCell id="0RD8nXB8vR-oB6VirIcd-60" value="count++" style="rounded=0;whiteSpace=wrap;html=1;" vertex="1" parent="1">
          <mxGeometry y="950" width="120" height="60" as="geometry" />
        </mxCell>
        <mxCell id="0RD8nXB8vR-oB6VirIcd-62" value="" style="endArrow=none;html=1;rounded=0;exitX=0.5;exitY=1;exitDx=0;exitDy=0;" edge="1" parent="1" source="0RD8nXB8vR-oB6VirIcd-60">
          <mxGeometry width="50" height="50" relative="1" as="geometry">
            <mxPoint x="190" y="980" as="sourcePoint" />
            <mxPoint x="60" y="1040" as="targetPoint" />
          </mxGeometry>
        </mxCell>
        <mxCell id="0RD8nXB8vR-oB6VirIcd-63" value="" style="endArrow=none;html=1;rounded=0;" edge="1" parent="1">
          <mxGeometry width="50" height="50" relative="1" as="geometry">
            <mxPoint x="60" y="1040" as="sourcePoint" />
            <mxPoint x="-70" y="1040" as="targetPoint" />
          </mxGeometry>
        </mxCell>
        <mxCell id="0RD8nXB8vR-oB6VirIcd-64" value="" style="endArrow=none;html=1;rounded=0;" edge="1" parent="1">
          <mxGeometry width="50" height="50" relative="1" as="geometry">
            <mxPoint x="-70" y="1040" as="sourcePoint" />
            <mxPoint x="-70" y="740" as="targetPoint" />
          </mxGeometry>
        </mxCell>
        <mxCell id="0RD8nXB8vR-oB6VirIcd-65" value="" style="endArrow=classic;html=1;rounded=0;" edge="1" parent="1">
          <mxGeometry width="50" height="50" relative="1" as="geometry">
            <mxPoint x="-70" y="740" as="sourcePoint" />
            <mxPoint x="180" y="740" as="targetPoint" />
          </mxGeometry>
        </mxCell>
        <mxCell id="0RD8nXB8vR-oB6VirIcd-66" value="" style="endArrow=none;html=1;rounded=0;" edge="1" parent="1">
          <mxGeometry width="50" height="50" relative="1" as="geometry">
            <mxPoint x="250" y="790" as="sourcePoint" />
            <mxPoint x="310" y="790" as="targetPoint" />
          </mxGeometry>
        </mxCell>
        <mxCell id="0RD8nXB8vR-oB6VirIcd-67" value="Вивід кількості&lt;br&gt;слів в стрічці" style="shape=parallelogram;perimeter=parallelogramPerimeter;whiteSpace=wrap;html=1;fixedSize=1;" vertex="1" parent="1">
          <mxGeometry x="250" y="850" width="120" height="60" as="geometry" />
        </mxCell>
        <mxCell id="0RD8nXB8vR-oB6VirIcd-68" value="" style="endArrow=classic;html=1;rounded=0;entryX=0.5;entryY=0;entryDx=0;entryDy=0;" edge="1" parent="1" target="0RD8nXB8vR-oB6VirIcd-67">
          <mxGeometry width="50" height="50" relative="1" as="geometry">
            <mxPoint x="310" y="790" as="sourcePoint" />
            <mxPoint x="210" y="970" as="targetPoint" />
          </mxGeometry>
        </mxCell>
        <mxCell id="0RD8nXB8vR-oB6VirIcd-69" value="&lt;font style=&quot;font-size: 14px;&quot;&gt;NO&lt;/font&gt;" style="text;strokeColor=none;align=center;fillColor=none;html=1;verticalAlign=middle;whiteSpace=wrap;rounded=0;" vertex="1" parent="1">
          <mxGeometry x="250" y="760" width="60" height="30" as="geometry" />
        </mxCell>
      </root>
    </mxGraphModel>
  </diagram>
</mxfile>
